<svg xmlns="http://www.w3.org/2000/svg" xmlns:xlink="http://www.w3.org/1999/xlink" version="1.1" id="Artwork" x="0px" y="0px" viewBox="0 0 482.31 129.64" style="enable-background:new 0 0 482.31 129.64;" xml:space="preserve">
<style type="text/css">
	.st0{fill:#3E1C84;}
</style>
    <g>
	<g>
		<g>
			<g>
				<path class="st0" d="M206.75,28.82h8.3c2.24,0,3.89,0.62,5.03,1.7c1.19,1.11,1.86,2.68,1.86,4.54c0,3.53-2.45,6.03-6.24,6.03      h-4.31v6.16h-4.64V28.82z M214.77,37.48c1.65,0,2.58-0.98,2.58-2.45c0-1.47-0.95-2.37-2.58-2.37h-3.38v4.82H214.77z"/>
                <path class="st0" d="M222.7,40.63c0-3.94,2.76-6.96,6.78-6.96c1.88,0,3.38,0.62,4.51,1.65c1.57,1.44,2.35,3.74,2.32,6.42h-9.49      c0.26,1.78,1.24,2.89,2.96,2.89c1.11,0,1.83-0.49,2.19-1.32h4.1c-0.28,1.19-1.06,2.32-2.22,3.12c-1.11,0.77-2.45,1.21-4.12,1.21      C225.38,47.64,222.7,44.62,222.7,40.63z M232.06,39.24c-0.15-1.57-1.13-2.58-2.5-2.58c-1.6,0-2.42,1.01-2.71,2.58H232.06z"/>
                <path class="st0" d="M238.14,34.05h4.05v1.8h0.08c0.98-1.42,2.24-2.19,4.07-2.19c2.89,0,4.59,2.06,4.59,5v8.58h-4.2v-7.73      c0-1.39-0.7-2.35-2.06-2.35c-1.39,0-2.32,1.16-2.32,2.78v7.3h-4.2V34.05z"/>
                <path class="st0" d="M253.33,34.05h4.05v1.8h0.08c0.98-1.42,2.24-2.19,4.07-2.19c2.89,0,4.59,2.06,4.59,5v8.58h-4.2v-7.73      c0-1.39-0.7-2.35-2.06-2.35c-1.39,0-2.32,1.16-2.32,2.78v7.3h-4.2V34.05z"/>
                <path class="st0" d="M268.54,28.82h4.2v3.4h-4.2V28.82z M268.54,34.05h4.2v13.2h-4.2V34.05z"/>
                <path class="st0" d="M275.19,34.05h4.05v1.8h0.08c0.98-1.42,2.24-2.19,4.07-2.19c2.89,0,4.59,2.06,4.59,5v8.58h-4.2v-7.73      c0-1.39-0.7-2.35-2.06-2.35c-1.39,0-2.32,1.16-2.32,2.78v7.3h-4.2V34.05z"/>
                <path class="st0" d="M290.01,47.56h4.07c0.23,0.7,0.93,1.29,2.32,1.29c1.78,0,2.53-0.93,2.53-2.53v-1.32h-0.1      c-0.77,0.88-1.78,1.52-3.38,1.52c-2.96,0-5.72-2.22-5.72-6.26c0-3.87,2.27-6.6,5.54-6.6c1.75,0,2.94,0.7,3.71,1.8h0.05v-1.42      h4.02v11.91c0,1.99-0.7,3.43-1.75,4.38c-1.16,1.03-2.89,1.47-4.85,1.47C292.82,51.82,290.43,50.32,290.01,47.56z M299.11,40.11      c0-1.78-0.93-3.27-2.68-3.27c-1.57,0-2.6,1.29-2.6,3.3c0,1.99,1.03,3.27,2.6,3.27C298.26,43.41,299.11,41.97,299.11,40.11z"/>
                <path class="st0" d="M306.35,43.77v-7.09h-1.75v-2.63h1.75v-4.18h4.1v4.18h2.4v2.63h-2.4v6.19c0,1.03,0.57,1.29,1.47,1.29      c0.36,0,0.77-0.03,0.93-0.03v3.07c-0.36,0.1-1.16,0.21-2.29,0.21C308.11,47.41,306.35,46.61,306.35,43.77z"/>
                <path class="st0" d="M313.78,40.68c0-3.97,2.84-6.99,7.06-6.99c4.25,0,7.04,3.02,7.04,6.99s-2.78,6.99-7.04,6.99      C316.61,47.67,313.78,44.65,313.78,40.68z M323.62,40.68c0-2.4-0.98-4.02-2.81-4.02c-1.83,0-2.78,1.62-2.78,4.02      c0,2.4,0.95,4,2.78,4C322.64,44.68,323.62,43.08,323.62,40.68z"/>
                <path class="st0" d="M329.73,34.05h4.05v1.8h0.08c0.98-1.42,2.24-2.19,4.07-2.19c2.89,0,4.59,2.06,4.59,5v8.58h-4.2v-7.73      c0-1.39-0.7-2.35-2.06-2.35c-1.39,0-2.32,1.16-2.32,2.78v7.3h-4.2V34.05z"/>
                <path class="st0" d="M349.71,28.82h8.89c1.91,0,3.33,0.46,4.3,1.26c1.06,0.88,1.6,2.06,1.6,3.53c0,1.83-0.95,2.99-2.58,3.61      v0.08c2.01,0.62,3.3,2.32,3.3,4.51c0,1.86-0.67,3.2-1.88,4.12c-1.08,0.85-2.6,1.31-4.54,1.31h-9.1V28.82z M357.93,36.12      c1.31,0,2.22-0.64,2.22-1.86c0-1.16-0.85-1.83-2.19-1.83h-3.74v3.69H357.93z M358.29,43.59c1.5,0,2.42-0.85,2.42-2.16      c0-1.47-1.08-2.22-2.48-2.22h-4.02v4.38H358.29z"/>
                <path class="st0" d="M367.3,28.82h4.2v3.4h-4.2V28.82z M367.3,34.05h4.2v13.2h-4.2V34.05z"/>
                <path class="st0" d="M373.31,40.68c0-3.97,2.84-6.99,7.06-6.99c4.25,0,7.04,3.02,7.04,6.99s-2.78,6.99-7.04,6.99      C376.15,47.67,373.31,44.65,373.31,40.68z M383.16,40.68c0-2.4-0.98-4.02-2.81-4.02c-1.83,0-2.78,1.62-2.78,4.02      c0,2.4,0.95,4,2.78,4C382.18,44.68,383.16,43.08,383.16,40.68z"/>
                <path class="st0" d="M389.26,34.05h4.02v1.88h0.08c0.82-1.37,2.09-2.27,4-2.27c1.73,0,3.04,0.9,3.71,2.32h0.05      c1.03-1.6,2.45-2.32,4.15-2.32c2.99,0,4.49,2.04,4.49,5v8.58h-4.2v-7.84c0-1.42-0.59-2.24-1.86-2.24      c-1.34,0-2.09,1.11-2.09,2.68v7.4h-4.2v-7.84c0-1.42-0.59-2.24-1.86-2.24c-1.32,0-2.09,1.11-2.09,2.68v7.4h-4.2V34.05z"/>
                <path class="st0" d="M411.54,40.63c0-3.94,2.76-6.96,6.78-6.96c1.88,0,3.38,0.62,4.51,1.65c1.57,1.44,2.35,3.74,2.32,6.42h-9.49      c0.26,1.78,1.24,2.89,2.96,2.89c1.11,0,1.83-0.49,2.19-1.32h4.1c-0.28,1.19-1.06,2.32-2.22,3.12c-1.11,0.77-2.45,1.21-4.12,1.21      C414.23,47.64,411.54,44.62,411.54,40.63z M420.9,39.24c-0.15-1.57-1.13-2.58-2.5-2.58c-1.6,0-2.42,1.01-2.71,2.58H420.9z"/>
                <path class="st0" d="M426.37,40.65c0-4.12,2.37-6.99,5.77-6.99c1.86,0,2.91,0.77,3.69,1.88h0.08v-6.73h4.2v18.43h-4.02v-1.78      h-0.05c-0.8,1.37-2.17,2.19-3.89,2.19C428.77,47.67,426.37,45.06,426.37,40.65z M436.01,40.65c0-2.22-0.9-3.82-2.73-3.82      c-1.68,0-2.66,1.55-2.66,3.76c0,2.29,0.98,3.74,2.6,3.74C434.98,44.34,436.01,42.82,436.01,40.65z"/>
                <path class="st0" d="M442.59,28.82h4.2v3.4h-4.2V28.82z M442.59,34.05h4.2v13.2h-4.2V34.05z"/>
                <path class="st0" d="M448.64,40.68c0-3.97,2.73-6.99,6.91-6.99c3.58,0,5.88,2.09,6.26,5.05h-4.05      c-0.26-1.19-0.98-1.96-2.16-1.96c-1.8,0-2.71,1.5-2.71,3.89c0,2.35,0.9,3.84,2.71,3.84c1.31,0,2.11-0.77,2.29-2.27h4.02      c-0.1,3.04-2.53,5.41-6.26,5.41C451.4,47.67,448.64,44.65,448.64,40.68z"/>
                <path class="st0" d="M463.06,43.57c0-2.91,2.32-3.79,5.05-4.15c2.47-0.31,3.35-0.57,3.35-1.47c0-0.85-0.54-1.42-1.8-1.42      c-1.34,0-2.01,0.59-2.14,1.7h-3.87c0.1-2.45,1.99-4.54,5.98-4.54c1.99,0,3.33,0.36,4.28,1.08c1.13,0.82,1.68,2.11,1.68,3.76      v6.65c0,1.06,0.1,1.65,0.46,1.88v0.18h-4.07c-0.21-0.28-0.33-0.8-0.44-1.47h-0.05c-0.77,1.11-1.93,1.8-3.92,1.8      C464.94,47.59,463.06,46.17,463.06,43.57z M471.57,42.54v-1.57c-0.54,0.28-1.32,0.49-2.17,0.7c-1.62,0.36-2.29,0.77-2.29,1.78      c0,1.06,0.77,1.47,1.8,1.47C470.48,44.91,471.57,43.95,471.57,42.54z"/>
                <path class="st0" d="M478.06,28.82h4.25v18.43h-4.25V28.82z"/>
			</g>
            <g>
				<path class="st0" d="M206.75,55.6h8.82c3.66,0,6.44,1.88,6.44,5.31c0,2.14-1.06,3.71-3.2,4.46v0.08      c1.6,0.54,2.42,1.55,2.68,3.38c0.39,2.42,0.13,4.74,0.77,4.98v0.23h-4.43c-0.49-0.28-0.41-2.45-0.7-4.28      c-0.23-1.7-1.11-2.63-3.07-2.63h-2.76v6.91h-4.56V55.6z M214.74,63.75c1.8,0,2.73-0.85,2.73-2.24c0-1.34-0.88-2.29-2.63-2.29      h-3.53v4.54H214.74z"/>
                <path class="st0" d="M223.5,67.41c0-3.94,2.76-6.96,6.78-6.96c1.88,0,3.38,0.62,4.51,1.65c1.57,1.44,2.35,3.74,2.32,6.42h-9.49      c0.26,1.78,1.24,2.89,2.96,2.89c1.11,0,1.83-0.49,2.19-1.32h4.1c-0.28,1.19-1.06,2.32-2.22,3.12c-1.11,0.77-2.45,1.21-4.12,1.21      C226.18,74.42,223.5,71.41,223.5,67.41z M232.86,66.02c-0.15-1.57-1.13-2.58-2.5-2.58c-1.6,0-2.42,1.01-2.71,2.58H232.86z"/>
                <path class="st0" d="M238.1,69.76h3.97c0.15,1.31,1.03,1.96,2.42,1.96c1.26,0,2.06-0.46,2.06-1.31c0-1.19-1.6-1.31-3.35-1.62      c-2.29-0.39-4.74-1.01-4.74-4.1c0-2.78,2.58-4.23,5.7-4.23c3.74,0,5.75,1.62,5.96,4.23h-3.87c-0.15-1.19-0.95-1.55-2.11-1.55      c-1.03,0-1.83,0.39-1.83,1.21c0,0.93,1.5,1.06,3.17,1.37c2.32,0.39,5.05,0.98,5.05,4.36c0,2.89-2.55,4.38-6.01,4.38      C240.65,74.45,238.23,72.67,238.1,69.76z"/>
                <path class="st0" d="M251.64,67.41c0-3.94,2.76-6.96,6.78-6.96c1.88,0,3.38,0.62,4.51,1.65c1.57,1.44,2.35,3.74,2.32,6.42h-9.49      c0.26,1.78,1.24,2.89,2.96,2.89c1.11,0,1.83-0.49,2.19-1.32h4.1c-0.28,1.19-1.06,2.32-2.22,3.12c-1.11,0.77-2.45,1.21-4.12,1.21      C254.32,74.42,251.64,71.41,251.64,67.41z M261,66.02c-0.15-1.57-1.13-2.58-2.5-2.58c-1.6,0-2.42,1.01-2.71,2.58H261z"/>
                <path class="st0" d="M266.32,70.35c0-2.91,2.32-3.79,5.05-4.15c2.47-0.31,3.35-0.57,3.35-1.47c0-0.85-0.54-1.42-1.8-1.42      c-1.34,0-2.01,0.59-2.14,1.7h-3.87c0.1-2.45,1.99-4.54,5.98-4.54c1.99,0,3.33,0.36,4.28,1.08c1.13,0.82,1.68,2.11,1.68,3.76      v6.65c0,1.06,0.1,1.65,0.46,1.88v0.18h-4.07c-0.21-0.28-0.33-0.8-0.44-1.47h-0.05c-0.77,1.11-1.93,1.8-3.92,1.8      C268.2,74.37,266.32,72.95,266.32,70.35z M274.83,69.32v-1.57c-0.54,0.28-1.32,0.49-2.17,0.7c-1.62,0.36-2.29,0.77-2.29,1.78      c0,1.06,0.77,1.47,1.8,1.47C273.75,71.69,274.83,70.74,274.83,69.32z"/>
                <path class="st0" d="M281.32,60.84h4.02v2.06h0.08c0.93-1.57,2.01-2.27,3.61-2.27c0.39,0,0.64,0.03,0.82,0.1v3.61h-0.1      c-2.58-0.36-4.23,0.9-4.23,3.76v5.93h-4.2V60.84z"/>
                <path class="st0" d="M290.77,67.46c0-3.97,2.73-6.99,6.91-6.99c3.58,0,5.88,2.09,6.26,5.05h-4.05      c-0.26-1.19-0.98-1.96-2.16-1.96c-1.8,0-2.71,1.5-2.71,3.89c0,2.35,0.9,3.84,2.71,3.84c1.31,0,2.11-0.77,2.29-2.27h4.02      c-0.1,3.04-2.53,5.41-6.26,5.41C293.53,74.45,290.77,71.43,290.77,67.46z"/>
                <path class="st0" d="M305.82,55.6h4.2v6.86h0.08c0.95-1.26,2.09-2.01,3.92-2.01c2.89,0,4.59,2.06,4.59,5v8.58h-4.2V66.3      c0-1.39-0.7-2.35-2.06-2.35c-1.39,0-2.32,1.16-2.32,2.78v7.3h-4.2V55.6z"/>
                <path class="st0" d="M325.05,64.89c0-5.49,3.58-9.64,9.07-9.64c2.14,0,3.94,0.62,5.26,1.62c1.6,1.21,2.53,3.02,2.76,5.08h-4.56      c-0.23-1.65-1.52-2.91-3.48-2.91c-2.99,0-4.41,2.5-4.41,5.85c0,3.38,1.7,5.83,4.43,5.83c2.04,0,3.38-1.29,3.58-3.07h4.56      c-0.13,1.83-0.95,3.51-2.22,4.72c-1.42,1.37-3.3,2.09-5.9,2.09C328.74,74.45,325.05,70.4,325.05,64.89z"/>
                <path class="st0" d="M343.5,67.41c0-3.94,2.76-6.96,6.78-6.96c1.88,0,3.38,0.62,4.51,1.65c1.57,1.44,2.35,3.74,2.32,6.42h-9.49      c0.26,1.78,1.24,2.89,2.96,2.89c1.11,0,1.83-0.49,2.19-1.32h4.1c-0.28,1.19-1.06,2.32-2.22,3.12c-1.11,0.77-2.45,1.21-4.12,1.21      C346.18,74.42,343.5,71.41,343.5,67.41z M352.86,66.02c-0.15-1.57-1.13-2.58-2.5-2.58c-1.6,0-2.42,1.01-2.71,2.58H352.86z"/>
                <path class="st0" d="M358.93,60.84h4.05v1.8h0.08c0.98-1.42,2.24-2.19,4.07-2.19c2.89,0,4.59,2.06,4.59,5v8.58h-4.2V66.3      c0-1.39-0.7-2.35-2.06-2.35c-1.39,0-2.32,1.16-2.32,2.78v7.3h-4.2V60.84z"/>
                <path class="st0" d="M374.74,70.56v-7.09h-1.75v-2.63h1.75v-4.18h4.1v4.18h2.4v2.63h-2.4v6.19c0,1.03,0.57,1.29,1.47,1.29      c0.36,0,0.77-0.03,0.93-0.03v3.07c-0.36,0.1-1.16,0.21-2.29,0.21C376.49,74.19,374.74,73.39,374.74,70.56z"/>
                <path class="st0" d="M382.16,67.41c0-3.94,2.76-6.96,6.78-6.96c1.88,0,3.38,0.62,4.51,1.65c1.57,1.44,2.35,3.74,2.32,6.42h-9.49      c0.26,1.78,1.24,2.89,2.96,2.89c1.11,0,1.83-0.49,2.19-1.32h4.1c-0.28,1.19-1.06,2.32-2.22,3.12c-1.11,0.77-2.45,1.21-4.12,1.21      C384.84,74.42,382.16,71.41,382.16,67.41z M391.52,66.02c-0.15-1.57-1.13-2.58-2.5-2.58c-1.6,0-2.42,1.01-2.71,2.58H391.52z"/>
                <path class="st0" d="M397.6,60.84h4.02v2.06h0.08c0.93-1.57,2.01-2.27,3.61-2.27c0.39,0,0.64,0.03,0.82,0.1v3.61h-0.1      c-2.58-0.36-4.23,0.9-4.23,3.76v5.93h-4.2V60.84z"/>
			</g>
		</g>
        <g>
			<path class="st0" d="M206.75,82.39h1.73v16.83h9.82v1.6h-11.55V82.39z"/>
            <path class="st0" d="M219.36,94.17c0-3.97,2.35-6.99,6.19-6.99c3.84,0,6.14,3.02,6.14,6.99s-2.29,6.99-6.14,6.99     C221.7,101.16,219.36,98.14,219.36,94.17z M230.05,94.17c0-3.12-1.55-5.65-4.51-5.65c-2.99,0-4.54,2.53-4.54,5.65     s1.55,5.65,4.54,5.65C228.51,99.82,230.05,97.29,230.05,94.17z"/>
            <path class="st0" d="M233.89,96.9v-9.41h1.6v9.31c0,2.01,1.21,2.99,3.14,2.99c2.27,0,3.87-1.7,3.87-3.97v-8.33h1.57v13.33h-1.57     v-1.96h-0.05c-0.93,1.29-2.06,2.27-4.18,2.27C235.7,101.13,233.89,99.58,233.89,96.9z"/>
            <path class="st0" d="M247.06,82.39h1.6v2.27h-1.6V82.39z M247.06,87.49h1.6v13.33h-1.6V87.49z"/>
            <path class="st0" d="M250.8,96.67h1.62c0.23,2.24,1.78,3.14,3.92,3.14c2.22,0,3.38-1.03,3.38-2.58c0-1.47-0.82-1.96-3.56-2.58     c-2.71-0.62-4.87-1.26-4.87-3.84c0-2.22,1.91-3.61,4.64-3.61c3.17,0,4.64,1.6,4.95,3.94h-1.6c-0.18-1.73-1.37-2.63-3.35-2.63     c-2.06,0-3.04,0.98-3.04,2.22c0,1.52,1.26,1.88,3.82,2.48c2.68,0.57,4.61,1.24,4.61,4c0,2.37-1.91,3.97-5,3.97     C252.76,101.18,250.95,99.25,250.8,96.67z"/>
            <path class="st0" d="M263.61,82.39h1.6v2.27h-1.6V82.39z M263.61,87.49h1.6v13.33h-1.6V87.49z"/>
            <path class="st0" d="M267.48,97.42c0-3.17,2.47-3.82,5.49-4.18c2.63-0.31,3.58-0.46,3.58-1.8v-0.26c0-1.8-1.13-2.68-3.2-2.68     c-2.37,0-3.61,0.98-3.74,2.97h-1.57c0.18-2.58,1.88-4.25,5.31-4.25c2.91,0,4.72,1.21,4.72,4.12v7.24c0,0.8,0.31,1.13,0.88,1.16     c0.18,0,0.36-0.05,0.59-0.1h0.08v1.16c-0.23,0.1-0.57,0.21-1.08,0.21c-1.16,0-1.88-0.59-1.96-1.88v-0.28h-0.08     c-0.75,1.06-2.11,2.29-4.67,2.29C269.36,101.13,267.48,99.89,267.48,97.42z M276.58,96v-2.4c-0.85,0.46-2.17,0.7-3.45,0.88     c-2.24,0.31-3.97,0.64-3.97,2.94c0,1.86,1.39,2.42,2.96,2.42C275.03,99.84,276.58,97.83,276.58,96z"/>
            <path class="st0" d="M281.36,87.49h1.6v2.04h0.05c0.9-1.34,2.35-2.32,4.46-2.32c2.48,0,4.25,1.47,4.25,4.15v9.46h-1.6v-9.31     c0-2.01-1.16-2.94-3.04-2.94c-2.27,0-4.12,1.6-4.12,3.79v8.46h-1.6V87.49z"/>
            <path class="st0" d="M293.9,97.42c0-3.17,2.47-3.82,5.49-4.18c2.63-0.31,3.58-0.46,3.58-1.8v-0.26c0-1.8-1.13-2.68-3.2-2.68     c-2.37,0-3.61,0.98-3.74,2.97h-1.57c0.18-2.58,1.88-4.25,5.31-4.25c2.91,0,4.72,1.21,4.72,4.12v7.24c0,0.8,0.31,1.13,0.88,1.16     c0.18,0,0.36-0.05,0.59-0.1h0.08v1.16c-0.23,0.1-0.57,0.21-1.08,0.21c-1.16,0-1.88-0.59-1.96-1.88v-0.28h-0.08     c-0.75,1.06-2.11,2.29-4.67,2.29C295.78,101.13,293.9,99.89,293.9,97.42z M303,96v-2.4c-0.85,0.46-2.17,0.7-3.45,0.88     c-2.24,0.31-3.97,0.64-3.97,2.94c0,1.86,1.39,2.42,2.96,2.42C301.46,99.84,303,97.83,303,96z"/>
            <path class="st0" d="M312.89,94.84h1.73c0.18,3.12,2.29,4.87,5.75,4.87c2.71,0,4.72-1.37,4.72-3.87c0-2.6-1.73-3.22-5.67-4.02     c-3.4-0.67-5.8-1.7-5.8-4.92c0-2.94,2.48-4.87,6.16-4.87c4.1,0,6.16,2.22,6.5,5.39h-1.68c-0.31-2.6-2.17-3.94-4.8-3.94     c-2.81,0-4.51,1.34-4.51,3.38c0,2.19,1.7,2.86,5,3.48c3.58,0.7,6.55,1.57,6.55,5.44c0,3.27-2.63,5.39-6.5,5.39     C315.5,101.16,313.1,98.42,312.89,94.84z"/>
            <path class="st0" d="M330.36,98.53v-9.72h-2.01v-1.31h2.01v-4.1h1.6v4.1h2.47v1.31h-2.47v9.46c0,0.95,0.44,1.26,1.29,1.26     c0.36,0,0.82-0.1,1.06-0.21h0.08v1.37c-0.44,0.15-0.9,0.23-1.47,0.23C331.39,100.92,330.36,100.23,330.36,98.53z"/>
            <path class="st0" d="M335.9,97.42c0-3.17,2.47-3.82,5.49-4.18c2.63-0.31,3.58-0.46,3.58-1.8v-0.26c0-1.8-1.13-2.68-3.2-2.68     c-2.37,0-3.61,0.98-3.74,2.97h-1.57c0.18-2.58,1.88-4.25,5.31-4.25c2.91,0,4.72,1.21,4.72,4.12v7.24c0,0.8,0.31,1.13,0.88,1.16     c0.18,0,0.36-0.05,0.59-0.1h0.08v1.16c-0.23,0.1-0.57,0.21-1.08,0.21c-1.16,0-1.88-0.59-1.96-1.88v-0.28h-0.08     c-0.75,1.06-2.11,2.29-4.67,2.29C337.78,101.13,335.9,99.89,335.9,97.42z M345,96v-2.4c-0.85,0.46-2.17,0.7-3.45,0.88     c-2.24,0.31-3.97,0.64-3.97,2.94c0,1.86,1.39,2.42,2.96,2.42C343.45,99.84,345,97.83,345,96z"/>
            <path class="st0" d="M350.37,98.53v-9.72h-2.01v-1.31h2.01v-4.1h1.6v4.1h2.47v1.31h-2.47v9.46c0,0.95,0.44,1.26,1.29,1.26     c0.36,0,0.82-0.1,1.06-0.21h0.08v1.37c-0.44,0.15-0.9,0.23-1.47,0.23C351.4,100.92,350.37,100.23,350.37,98.53z"/>
            <path class="st0" d="M355.4,94.17c0-4,2.4-6.99,6.08-6.99c4.28,0,5.75,3.53,5.72,7.27h-10.16c0.08,2.99,1.52,5.34,4.56,5.34     c2.22,0,3.38-1.19,3.89-2.99h1.55c-0.57,2.63-2.45,4.36-5.44,4.36C357.61,101.16,355.4,98.17,355.4,94.17z M365.53,93.19     c-0.08-2.63-1.31-4.69-4.05-4.69c-2.71,0-4.12,2.04-4.41,4.69H365.53z"/>
            <path class="st0" d="M374.19,94.97V82.39h1.73v12.43c0,3.4,1.83,4.79,5.05,4.79c3.07,0,5.03-1.39,5.03-4.79V82.39h1.73v12.58     c0,4.28-2.84,6.14-6.83,6.14C376.87,101.1,374.19,99.2,374.19,94.97z"/>
            <path class="st0" d="M390.93,87.49h1.6v2.04h0.05c0.9-1.34,2.35-2.32,4.46-2.32c2.48,0,4.25,1.47,4.25,4.15v9.46h-1.6v-9.31     c0-2.01-1.16-2.94-3.04-2.94c-2.27,0-4.12,1.6-4.12,3.79v8.46h-1.6V87.49z"/>
            <path class="st0" d="M404.23,82.39h1.6v2.27h-1.6V82.39z M404.23,87.49h1.6v13.33h-1.6V87.49z"/>
            <path class="st0" d="M407.55,87.49h1.7l2.86,8.46c0.44,1.29,1.08,3.38,1.08,3.38h0.05c0,0,0.67-2.09,1.11-3.38l2.99-8.46h1.62     l-4.82,13.33h-1.88L407.55,87.49z"/>
            <path class="st0" d="M419.53,94.17c0-4,2.4-6.99,6.08-6.99c4.28,0,5.75,3.53,5.72,7.27h-10.16c0.08,2.99,1.52,5.34,4.56,5.34     c2.22,0,3.38-1.19,3.89-2.99h1.55c-0.57,2.63-2.45,4.36-5.44,4.36C421.75,101.16,419.53,98.17,419.53,94.17z M429.67,93.19     c-0.08-2.63-1.31-4.69-4.05-4.69c-2.71,0-4.12,2.04-4.41,4.69H429.67z"/>
            <path class="st0" d="M433.65,87.49h1.6v2.48h0.05c0.83-1.55,2.22-2.58,4.07-2.58c0.21,0,0.34,0.03,0.44,0.05v1.57     c-0.95-0.15-2.01,0.05-2.84,0.64c-1.03,0.77-1.73,2.01-1.73,3.58v7.58h-1.6V87.49z"/>
            <path class="st0" d="M440.85,96.67h1.62c0.23,2.24,1.78,3.14,3.92,3.14c2.22,0,3.38-1.03,3.38-2.58c0-1.47-0.82-1.96-3.56-2.58     c-2.71-0.62-4.87-1.26-4.87-3.84c0-2.22,1.91-3.61,4.64-3.61c3.17,0,4.64,1.6,4.95,3.94h-1.6c-0.18-1.73-1.37-2.63-3.35-2.63     c-2.06,0-3.04,0.98-3.04,2.22c0,1.52,1.26,1.88,3.82,2.48c2.68,0.57,4.61,1.24,4.61,4c0,2.37-1.91,3.97-5,3.97     C442.81,101.18,441.01,99.25,440.85,96.67z"/>
            <path class="st0" d="M453.67,82.39h1.6v2.27h-1.6V82.39z M453.67,87.49h1.6v13.33h-1.6V87.49z"/>
            <path class="st0" d="M459.14,98.53v-9.72h-2.01v-1.31h2.01v-4.1h1.6v4.1h2.47v1.31h-2.47v9.46c0,0.95,0.44,1.26,1.29,1.26     c0.36,0,0.82-0.1,1.06-0.21h0.08v1.37c-0.44,0.15-0.9,0.23-1.47,0.23C460.17,100.92,459.14,100.23,459.14,98.53z"/>
            <path class="st0" d="M465.86,105.02v-1.42h0.08c0.23,0.08,0.59,0.18,1.21,0.18c1.01,0,1.73-0.44,2.22-1.8l0.44-1.19l-5.13-13.3     h1.7l3.2,8.61c0.46,1.24,1.06,3.04,1.06,3.04h0.05c0,0,0.57-1.8,1.01-3.04l3.07-8.61h1.65l-5.49,14.72     c-0.9,2.4-1.96,3.02-3.69,3.02C466.63,105.23,466.27,105.15,465.86,105.02z"/>
		</g>
	</g>
        <g>
		<g>
			<g>
				<path class="st0" d="M91.22,0h28.81v28.82l22.29,0.02c20.85,0,35.63,15.06,35.63,35.05c0,11.44-4.2,20.85-11.59,27.37      c-6.81,6.08-16.37,9.56-29.54,9.56h-45.6V0z M120.02,76.82h15.85c8,0,12.6-4.59,12.6-11.71c0-7.26-4.74-12.3-12.3-12.3h-16.14      V76.82z"/>
			</g>
		</g>
            <path class="st0" d="M0,28.82h45.6c13.18,0,22.74,3.48,29.54,9.56c7.39,6.52,11.59,15.93,11.59,27.37    c0,19.99-14.77,35.05-35.63,35.05l-22.29,0.02v28.82H0V28.82z M28.81,76.83h16.14c7.56,0,12.3-5.04,12.3-12.3    c0-7.11-4.59-11.71-12.6-11.71H28.81V76.83z"/>
	</g>
</g>
</svg>